<?xml version="1.0" encoding="UTF-8" standalone="no"?>
<svg xmlns="http://www.w3.org/2000/svg" width="256" height="256" viewBox="0 0 256 256" fill="none" version="1.1" id="svg16">
  <path d="m 100.064,24.032 c 0,-4.416 3.648,-8.544 10.944,-12.384 7.296,-4.032 16.896,-6.048 28.8,-6.048 9.216,0 15.168,1.92 17.856,5.76 1.92,2.688 2.88,5.184 2.88,7.488 v 8.64 c 21.696,2.304 36.768,6.336 45.216,12.096 3.456,2.304 5.184,4.512 5.184,6.624 0,9.984 -2.4,20.736 -7.2,32.256 -4.608,11.52 -9.12,17.28 -13.536,17.28 -0.768,0 -3.264,-0.864 -7.488,-2.592 -12.672,-5.568 -23.232,-8.352 -31.68,-8.352 -8.256,0 -13.92,0.768 -16.992,2.304 -2.88,1.536 -4.32,3.936 -4.32,7.2 0,3.072 2.112,5.472 6.336,7.2 4.224,1.728 9.408,3.264 15.552,4.608 6.336,1.152 13.152,3.168 20.448,6.048 7.488,2.88 14.4,6.336 20.736,10.368 6.336,4.032 11.616,10.08 15.84,18.144 4.224,7.872 6.336,15.936 6.336,24.192 0,8.256 -0.768,15.072 -2.304,20.448 -1.536,5.376 -4.224,10.944 -8.064,16.704 -3.648,5.76 -9.312,10.944 -16.992,15.552 -7.488,4.416 -16.512,7.68 -27.072,9.792 v 4.608 c 0,4.416 -3.648,8.544 -10.944,12.384 -7.296,4.032 -16.896,6.048 -28.8,6.048 -9.216,0 -15.168,-1.92 -17.856,-5.76 -1.92,-2.688 -2.88,-5.184 -2.88,-7.488 v -8.64 c -12.48,-1.152 -23.328,-2.976 -32.544,-5.472 -17.664,-4.8 -26.496,-9.984 -26.496,-15.552 0,-10.752 1.536,-21.888 4.608,-33.408 3.072,-11.712 6.72,-17.568 10.944,-17.568 0.768,0 8.736,2.592 23.904,7.776 15.168,5.184 26.592,7.776 34.272,7.776 7.68,0 12.672,-0.768 14.976,-2.304 2.304,-1.728 3.456,-4.128 3.456,-7.2 0,-3.072 -2.112,-5.664 -6.336,-7.776 -4.224,-2.304 -9.504,-4.128 -15.84,-5.472 -6.336,-1.344 -13.248,-3.456 -20.736,-6.336 -7.296,-2.88 -14.112,-6.24 -20.448,-10.08 -6.336,-3.84 -11.616,-9.504 -15.84,-16.992 -4.224,-7.488 -6.336,-16.224 -6.336,-26.208 0,-35.328 17.472,-55.968 52.416,-61.92 z" fill="#0cd15b" id="path2" />
</svg>
